<mxfile>
    <diagram id="m4v-pFkPwFD-l12nB0Ih" name="第 1 页">
        <mxGraphModel dx="1651" dy="1175" grid="1" gridSize="10" guides="1" tooltips="1" connect="1" arrows="1" fold="1" page="1" pageScale="1" pageWidth="3300" pageHeight="4681" math="0" shadow="0">
            <root>
                <mxCell id="0"/>
                <mxCell id="1" parent="0"/>
                <mxCell id="3" value="" style="html=1;points=[];perimeter=orthogonalPerimeter;" parent="1" vertex="1">
                    <mxGeometry x="1430" y="2420" width="10" height="310" as="geometry"/>
                </mxCell>
                <mxCell id="4" value="" style="html=1;points=[];perimeter=orthogonalPerimeter;" parent="1" vertex="1">
                    <mxGeometry x="1150" y="2420" width="10" height="310" as="geometry"/>
                </mxCell>
                <mxCell id="6" value="" style="shape=umlLifeline;participant=umlActor;perimeter=lifelinePerimeter;whiteSpace=wrap;html=1;container=1;collapsible=0;recursiveResize=0;verticalAlign=top;spacingTop=36;outlineConnect=0;" parent="1" vertex="1">
                    <mxGeometry x="920" y="2360" width="20" height="300" as="geometry"/>
                </mxCell>
                <mxCell id="7" value="1.点击平板或者小程序" style="html=1;verticalAlign=bottom;endArrow=block;entryX=0.06;entryY=0.107;entryDx=0;entryDy=0;entryPerimeter=0;" parent="1" target="4" edge="1">
                    <mxGeometry width="80" relative="1" as="geometry">
                        <mxPoint x="930" y="2450" as="sourcePoint"/>
                        <mxPoint x="1030" y="2450" as="targetPoint"/>
                        <Array as="points"/>
                    </mxGeometry>
                </mxCell>
                <mxCell id="8" value="平板" style="whiteSpace=wrap;html=1;" parent="1" vertex="1">
                    <mxGeometry x="1107.5" y="2370" width="95" height="40" as="geometry"/>
                </mxCell>
                <mxCell id="9" value="" style="html=1;points=[];perimeter=orthogonalPerimeter;" parent="1" vertex="1">
                    <mxGeometry x="1692.5" y="2420" width="10" height="310" as="geometry"/>
                </mxCell>
                <mxCell id="11" value="后台" style="whiteSpace=wrap;html=1;" parent="1" vertex="1">
                    <mxGeometry x="1400" y="2370" width="95" height="40" as="geometry"/>
                </mxCell>
                <mxCell id="12" value="调度" style="whiteSpace=wrap;html=1;" parent="1" vertex="1">
                    <mxGeometry x="1650" y="2370" width="95" height="40" as="geometry"/>
                </mxCell>
                <mxCell id="13" value="2.发送格口开锁请求" style="html=1;verticalAlign=bottom;endArrow=block;entryX=0;entryY=0.097;entryDx=0;entryDy=0;entryPerimeter=0;" parent="1" target="3" edge="1">
                    <mxGeometry width="80" relative="1" as="geometry">
                        <mxPoint x="1160" y="2450" as="sourcePoint"/>
                        <mxPoint x="1240" y="2450" as="targetPoint"/>
                    </mxGeometry>
                </mxCell>
                <mxCell id="14" value="3.发送订单下格口开锁请求" style="html=1;verticalAlign=bottom;endArrow=block;entryX=-0.207;entryY=0.088;entryDx=0;entryDy=0;entryPerimeter=0;" parent="1" target="9" edge="1">
                    <mxGeometry width="80" relative="1" as="geometry">
                        <mxPoint x="1440" y="2450" as="sourcePoint"/>
                        <mxPoint x="1520" y="2450" as="targetPoint"/>
                    </mxGeometry>
                </mxCell>
                <mxCell id="17" value="" style="shape=requiredInterface;html=1;verticalLabelPosition=bottom;" parent="1" vertex="1">
                    <mxGeometry x="1702.5" y="2450" width="27.5" height="40" as="geometry"/>
                </mxCell>
                <mxCell id="18" value="4.请求接受成功" style="html=1;verticalAlign=bottom;endArrow=open;dashed=1;endSize=8;entryX=1.129;entryY=0.198;entryDx=0;entryDy=0;entryPerimeter=0;" parent="1" target="3" edge="1">
                    <mxGeometry relative="1" as="geometry">
                        <mxPoint x="1692.5" y="2480" as="sourcePoint"/>
                        <mxPoint x="1612.5" y="2480" as="targetPoint"/>
                    </mxGeometry>
                </mxCell>
                <mxCell id="19" value="5.已发送开锁请求" style="html=1;verticalAlign=bottom;endArrow=open;dashed=1;endSize=8;entryX=1.243;entryY=0.193;entryDx=0;entryDy=0;entryPerimeter=0;" parent="1" target="4" edge="1">
                    <mxGeometry relative="1" as="geometry">
                        <mxPoint x="1430" y="2480" as="sourcePoint"/>
                        <mxPoint x="1350" y="2480" as="targetPoint"/>
                    </mxGeometry>
                </mxCell>
                <mxCell id="22" value="1.mqtt开锁成功" style="html=1;verticalAlign=bottom;endArrow=block;entryX=1.071;entryY=0.427;entryDx=0;entryDy=0;entryPerimeter=0;" parent="1" target="3" edge="1">
                    <mxGeometry width="80" relative="1" as="geometry">
                        <mxPoint x="1690" y="2550" as="sourcePoint"/>
                        <mxPoint x="1500" y="2550" as="targetPoint"/>
                    </mxGeometry>
                </mxCell>
                <mxCell id="23" value="2.发送订单状态已经改变" style="html=1;verticalAlign=bottom;endArrow=open;dashed=1;endSize=8;entryX=1;entryY=0.419;entryDx=0;entryDy=0;entryPerimeter=0;" parent="1" target="4" edge="1">
                    <mxGeometry relative="1" as="geometry">
                        <mxPoint x="1430" y="2550" as="sourcePoint"/>
                        <mxPoint x="1350" y="2550" as="targetPoint"/>
                    </mxGeometry>
                </mxCell>
            </root>
        </mxGraphModel>
    </diagram>
</mxfile>